<mxfile host="app.diagrams.net" modified="2022-10-13T12:17:13.304Z" agent="5.0 (Macintosh; Intel Mac OS X 10_14_0) AppleWebKit/537.36 (KHTML, like Gecko) Chrome/106.0.0.0 Safari/537.36" etag="5eZ61zANs47aHvLlfExs" version="20.4.0" type="github">
  <diagram id="jc9GZA1MNT4-3HruMIAA" name="第 1 页">
    <mxGraphModel dx="1174" dy="518" grid="1" gridSize="10" guides="1" tooltips="1" connect="1" arrows="1" fold="1" page="1" pageScale="1" pageWidth="827" pageHeight="1169" math="0" shadow="0">
      <root>
        <mxCell id="0" />
        <mxCell id="1" parent="0" />
        <mxCell id="Ia5VLCGhcOklSAbFQO4t-1" value="" style="rounded=0;whiteSpace=wrap;html=1;" vertex="1" parent="1">
          <mxGeometry x="60" y="270" width="360" height="230" as="geometry" />
        </mxCell>
        <mxCell id="Ia5VLCGhcOklSAbFQO4t-2" value="组件" style="rounded=0;whiteSpace=wrap;html=1;fillColor=#FFFF99;" vertex="1" parent="1">
          <mxGeometry x="100" y="330" width="120" height="60" as="geometry" />
        </mxCell>
        <mxCell id="Ia5VLCGhcOklSAbFQO4t-3" value="运维特征" style="rounded=0;whiteSpace=wrap;html=1;fillColor=#FFFF99;" vertex="1" parent="1">
          <mxGeometry x="260" y="330" width="120" height="60" as="geometry" />
        </mxCell>
        <mxCell id="Ia5VLCGhcOklSAbFQO4t-4" value="部署策略" style="rounded=0;whiteSpace=wrap;html=1;fillColor=#FFFF99;" vertex="1" parent="1">
          <mxGeometry x="100" y="410" width="120" height="60" as="geometry" />
        </mxCell>
        <mxCell id="Ia5VLCGhcOklSAbFQO4t-5" value="工作流" style="rounded=0;whiteSpace=wrap;html=1;fillColor=#3399FF;" vertex="1" parent="1">
          <mxGeometry x="260" y="410" width="120" height="60" as="geometry" />
        </mxCell>
        <mxCell id="Ia5VLCGhcOklSAbFQO4t-6" value="应用部署计划" style="text;html=1;strokeColor=none;fillColor=none;align=center;verticalAlign=middle;whiteSpace=wrap;rounded=0;" vertex="1" parent="1">
          <mxGeometry x="190" y="280" width="90" height="30" as="geometry" />
        </mxCell>
      </root>
    </mxGraphModel>
  </diagram>
</mxfile>
